<?xml version="1.0" encoding="UTF-8"?>
<svg width="180px" height="23px" viewBox="0 0 180 23" version="1.1" xmlns="http://www.w3.org/2000/svg" xmlns:xlink="http://www.w3.org/1999/xlink">
    <!-- Generator: Sketch 57.1 (83088) - https://sketch.com -->
    <title>编组 2</title>
    <desc>Created with Sketch.</desc>
    <defs>
        <polygon id="path-1" points="0.0491798851 0.112604167 26.6787759 0.112604167 26.6787759 21.8452083 0.0491798851 21.8452083"></polygon>
        <path d="M29.8470862,0.113083333 L25.1771437,5.189375 L25.1771437,5.22675 L41.209023,5.22675 C44.0138506,5.22675 46.2996897,7.51860417 46.2996897,10.3404167 L46.2996897,10.3404167 L46.2996897,11.6169167 C46.2996897,14.4377708 44.0138506,16.7310625 41.209023,16.7310625 L41.209023,16.7310625 L30.2678103,16.7310625 L30.2678103,7.79364583 L25.1771437,7.79364583 L25.1771437,16.7310625 L25.1771437,20.1676458 L16.6977874,10.9786667 L26.724569,0.113083333 L20.0511782,0.113083333 L13.361569,7.36335417 L6.67005172,0.113083333 L0,0.113083333 L10.0258276,10.9786667 L0,21.8447292 L6.66957471,21.8447292 L13.361569,14.5939792 L20.0516552,21.8447292 L25.1771437,21.8447292 L26.725046,21.8447292 L30.2678103,21.8447292 L41.209023,21.8447292 C46.8215402,21.8447292 51.3908333,17.2567083 51.3908333,11.6169167 L51.3908333,11.6169167 L51.3908333,10.3404167 C51.3908333,4.72841667 46.8697184,0.160520833 41.2977471,0.113083333 L41.2977471,0.113083333 L29.8470862,0.113083333 Z" id="path-3"></path>
        <linearGradient x1="50.0001171%" y1="101.402044%" x2="50.0001171%" y2="1.39933367%" id="linearGradient-5">
            <stop stop-color="#025CFF" offset="0%"></stop>
            <stop stop-color="#4B92FF" offset="100%"></stop>
        </linearGradient>
    </defs>
    <g id="一方平台" stroke="none" stroke-width="1" fill="none" fill-rule="evenodd">
        <g id="Upload-FIle" transform="translate(-217.000000, -31.000000)">
            <g id="编组-2" transform="translate(217.000000, 31.000000)">
                <g id="编组">
                    <g id="编组-7">
                        <g id="编组" transform="translate(51.517241, 0.225496)">
                            <g>
                                <mask id="mask-2" fill="white">
                                    <use xlink:href="#path-1"></use>
                                </mask>
                                <g id="Clip-2"></g>
                                <path d="M1.59598506,12.9827812 C1.60900747,12.8934167 1.61759368,12.8042917 1.62427184,12.7151667 C1.6476454,12.4741458 1.66338678,12.2326458 1.66958793,11.9873125 L1.67453693,11.8033125 L1.67626609,11.617875 L1.67626609,10.3399375 C1.67626609,8.55791667 1.28702471,6.86933333 0.59011092,5.34797917 L0.441283333,5.0298125 L0.58972931,5.348075 L0.583528161,5.348075 C0.486217816,5.13484583 0.386522414,4.92449167 0.280625862,4.715575 L0.432697126,5.01352083 L0.28053046,4.71547917 L0.2251375,4.61126042 L0.167955747,4.50704167 L1.68676034,2.85535417 L4.20919713,0.112604167 L19.0461626,0.112604167 C23.254358,0.112604167 26.6788236,3.63352083 26.6788236,7.9623125 C26.6788236,12.2132928 23.3800157,15.6837345 19.2791282,15.8108115 L19.0461626,15.8144167 L5.13984655,15.8144167 L5.13984655,21.8452083 L0.0491798851,21.8452083 L0.0491798851,17.6462708 C0.384518966,17.0640833 0.67645,16.45075 0.914478736,15.8144167 L0.909947126,15.8143208 C1.18470575,15.0773625 1.39268276,14.3083 1.52242989,13.5152792 C1.55066897,13.3388021 1.57642759,13.1610312 1.59598506,12.9827812 Z M19.0461626,5.34797917 L5.13984655,5.34797917 L5.13984655,10.5790417 L19.0461626,10.5790417 C20.4480994,10.5790417 21.592927,9.4055625 21.592927,7.9623125 C21.592927,6.51954167 20.4480994,5.34797917 19.0461626,5.34797917 Z" id="形状" fill="#0015A8" mask="url(#mask-2)"></path>
                            </g>
                        </g>
                        <g id="编组" transform="translate(0.000000, 0.225496)">
                            <mask id="mask-4" fill="white">
                                <use xlink:href="#path-3"></use>
                            </mask>
                            <g id="Clip-10"></g>
                            <path d="M29.8470862,0.113083333 L25.1771437,5.189375 L25.1771437,5.22675 L41.209023,5.22675 C44.0138506,5.22675 46.2996897,7.51860417 46.2996897,10.3404167 L46.2996897,10.3404167 L46.2996897,11.6169167 C46.2996897,14.4377708 44.0138506,16.7310625 41.209023,16.7310625 L41.209023,16.7310625 L30.2678103,16.7310625 L30.2678103,7.79364583 L25.1771437,7.79364583 L25.1771437,16.7310625 L25.1771437,20.1676458 L16.6977874,10.9786667 L26.724569,0.113083333 L20.0511782,0.113083333 L13.361569,7.36335417 L6.67005172,0.113083333 L0,0.113083333 L10.0258276,10.9786667 L0,21.8447292 L6.66957471,21.8447292 L13.361569,14.5939792 L20.0516552,21.8447292 L25.1771437,21.8447292 L26.725046,21.8447292 L30.2678103,21.8447292 L41.209023,21.8447292 C46.8215402,21.8447292 51.3908333,17.2567083 51.3908333,11.6169167 L51.3908333,11.6169167 L51.3908333,10.3404167 C51.3908333,4.72841667 46.8697184,0.160520833 41.2977471,0.113083333 L41.2977471,0.113083333 L29.8470862,0.113083333 Z" id="Fill-9" fill="url(#linearGradient-5)" mask="url(#mask-4)"></path>
                        </g>
                    </g>
                </g>
                <path d="M108.598767,2.87940329 L108.598767,5.44001877 L97.4528811,5.44001877 L97.4528811,2.87940329 L108.598767,2.87940329 Z M91,20.7261172 L92.8033304,14.0529981 L91,14.0529981 L91.0434537,13.9495389 L92.868511,8.33687668 L91,8.33687668 L91,5.95731482 L95.8016388,5.95731482 L93.9548546,11.6734362 L95.432282,11.6734362 L94.4545727,15.9411287 L96.0406344,18.3724201 L109.924106,18.3724201 L109.924106,20.7261172 L94.4762996,20.7261172 L93.6289516,19.4846067 L93.3247753,20.7261172 L91,20.7261172 Z M91.0217269,2.0258648 L93.889674,2.0258648 L95.3888282,5.18137074 L92.5208811,5.18137074 L91.0217269,2.0258648 Z M96.7576212,16.8722616 L98.7782203,10.1474129 L96.7576212,10.1474129 L96.7576212,7.5867974 L109.228846,7.5867974 L109.228846,10.1474129 L101.646167,10.1474129 L100.386009,14.3116461 L105.622185,14.3116461 L105.10074,12.0096787 L107.968687,12.0096787 L109.228846,17.4412872 L106.339172,17.4412872 L106.208811,16.8722616 L96.7576212,16.8722616 Z M126.194429,5.05204673 L126.476879,4.43129146 L120.654077,4.43129146 L120.936526,5.05204673 L117.807857,5.05204673 L117.525407,4.43129146 L114.027381,4.43129146 L114.027381,2.62075527 L116.699786,2.62075527 L116.417337,2 L119.546006,2 L119.828456,2.62075527 L127.3025,2.62075527 L127.584949,2 L130.713619,2 L130.409443,2.62075527 L133.103575,2.62075527 L133.103575,4.43129146 L129.583821,4.43129146 L129.301372,5.05204673 L126.194429,5.05204673 Z M132.430042,17.9068537 C132.430042,18.3034493 132.368483,18.6741745 132.245363,19.0190402 C132.122244,19.363906 131.952052,19.665659 131.734782,19.9243083 C131.517512,20.1829576 131.264034,20.3855632 130.974341,20.5321312 C130.684648,20.6786991 130.373233,20.751982 130.040086,20.751982 L114.700914,20.751982 L114.700914,14.8806718 L132.430042,14.8806718 L132.430042,17.9068537 Z M128.540932,16.8722616 L118.568297,16.8722616 L118.568297,18.7603922 L127.519769,18.7603922 C127.809462,18.7603922 128.052076,18.6440017 128.247619,18.4112174 C128.443162,18.178433 128.540932,17.8896122 128.540932,17.5447465 L128.540932,16.8722616 Z M115.417901,8.98349674 L113.940473,8.98349674 L113.940473,5.62107239 L131.039522,5.62107239 C131.705816,5.62107239 132.230877,5.80212419 132.61472,6.16423324 C132.998563,6.52634229 133.190482,7.09536226 133.190482,7.87131023 L133.190482,8.98349674 L131.691328,8.98349674 L131.691328,11.311329 C131.691328,12.0355471 131.484925,12.6476746 131.072112,13.14773 C130.6593,13.6477853 130.148723,13.8978093 129.540368,13.8978093 L115.417901,13.8978093 L115.417901,8.98349674 Z M127.823945,10.6905737 L119.285284,10.6905737 L119.285284,11.9062195 L127.041777,11.9062195 C127.259047,11.9062195 127.443724,11.8113828 127.595813,11.6217066 C127.747902,11.4320305 127.823945,11.2078711 127.823945,10.9492218 L127.823945,10.6905737 Z M116.699786,7.5867974 L116.699786,8.69898391 L130.409443,8.69898391 L130.409443,8.41447108 C130.409443,8.17306505 130.344263,7.97477021 130.213901,7.81958062 C130.083539,7.66439103 129.92421,7.5867974 129.73591,7.5867974 L116.699786,7.5867974 Z M150.503696,12.3459211 L151.763854,5.87972041 L154.371079,5.87972041 L153.11092,12.3459211 L150.503696,12.3459211 Z M143.029652,12.3459211 L140.422427,12.3459211 L139.249176,5.87972041 L141.8564,5.87972041 L143.029652,12.3459211 Z M156.196136,15.8893991 L148.17892,15.8893991 L148.17892,20.6485228 L145.158885,20.6485228 L145.158885,15.8893991 L137.119942,15.8893991 L137.119942,13.3546484 L145.158885,13.3546484 L145.158885,4.66407468 L137.836929,4.66407468 L137.836929,2.12932401 L155.479149,2.12932401 L155.479149,4.66407468 L148.17892,4.66407468 L148.17892,13.3546484 L156.196136,13.3546484 L156.196136,15.8893991 Z M178.484803,18.1137721 C178.484803,18.4586379 178.430487,18.7776339 178.321852,19.0707698 C178.213217,19.3639057 178.068373,19.6182404 177.887314,19.8337815 C177.706256,20.0493226 177.48899,20.2217529 177.235508,20.3510776 C176.982027,20.4804022 176.717686,20.5450636 176.442477,20.5450636 L160.777402,20.5450636 L160.777402,11.2337346 L178.484803,11.2337346 L178.484803,18.1137721 Z M175.31268,13.7684853 L163.949526,13.7684853 L163.949526,18.0361777 L174.639147,18.0361777 C174.827448,18.0361777 174.986776,17.9585841 175.117138,17.8033945 C175.2475,17.6482057 175.31268,17.4499101 175.31268,17.208504 L175.31268,13.7684853 Z M160.429773,9.99222405 L164.623059,2.20691842 L167.686548,2.20691842 L164.862054,7.45747338 L174.595693,7.45747338 L172.46646,3.24151053 L175.377861,3.24151053 L179.071429,10.5871145 L176.181755,10.5871145 L175.877579,9.99222405 L160.429773,9.99222405 Z" id="运营平台" fill-opacity="0.85" fill="#000000" fill-rule="nonzero"></path>
            </g>
        </g>
    </g>
</svg>