<?xml version="1.0" encoding="UTF-8"?>
<svg width="166px" height="23px" viewBox="0 0 166 23" version="1.1" xmlns="http://www.w3.org/2000/svg" xmlns:xlink="http://www.w3.org/1999/xlink">
    <!-- Generator: Sketch 57.1 (83088) - https://sketch.com -->
    <title>编组</title>
    <desc>Created with Sketch.</desc>
    <defs>
        <polygon id="path-1" points="0.0491798851 0.112604167 26.6787759 0.112604167 26.6787759 21.8452083 0.0491798851 21.8452083"></polygon>
        <path d="M29.8470862,0.113083333 L25.1771437,5.189375 L25.1771437,5.22675 L41.209023,5.22675 C44.0138506,5.22675 46.2996897,7.51860417 46.2996897,10.3404167 L46.2996897,10.3404167 L46.2996897,11.6169167 C46.2996897,14.4377708 44.0138506,16.7310625 41.209023,16.7310625 L41.209023,16.7310625 L30.2678103,16.7310625 L30.2678103,7.79364583 L25.1771437,7.79364583 L25.1771437,16.7310625 L25.1771437,20.1676458 L16.6977874,10.9786667 L26.724569,0.113083333 L20.0511782,0.113083333 L13.361569,7.36335417 L6.67005172,0.113083333 L0,0.113083333 L10.0258276,10.9786667 L0,21.8447292 L6.66957471,21.8447292 L13.361569,14.5939792 L20.0516552,21.8447292 L25.1771437,21.8447292 L26.725046,21.8447292 L30.2678103,21.8447292 L41.209023,21.8447292 C46.8215402,21.8447292 51.3908333,17.2567083 51.3908333,11.6169167 L51.3908333,11.6169167 L51.3908333,10.3404167 C51.3908333,4.72841667 46.8697184,0.160520833 41.2977471,0.113083333 L41.2977471,0.113083333 L29.8470862,0.113083333 Z" id="path-3"></path>
        <linearGradient x1="50.0001171%" y1="101.402044%" x2="50.0001171%" y2="1.39933367%" id="linearGradient-5">
            <stop stop-color="#025CFF" offset="0%"></stop>
            <stop stop-color="#4B92FF" offset="100%"></stop>
        </linearGradient>
    </defs>
    <g id="HKSTP" stroke="none" stroke-width="1" fill="none" fill-rule="evenodd">
        <g id="Project1" transform="translate(-37.000000, -50.000000)">
            <g id="编组" transform="translate(37.000000, 50.000000)">
                <g id="编组-7">
                    <g id="编组" transform="translate(51.517241, 0.225496)">
                        <g>
                            <mask id="mask-2" fill="white">
                                <use xlink:href="#path-1"></use>
                            </mask>
                            <g id="Clip-2"></g>
                            <path d="M1.59598506,12.9827812 C1.60900747,12.8934167 1.61759368,12.8042917 1.62427184,12.7151667 C1.6476454,12.4741458 1.66338678,12.2326458 1.66958793,11.9873125 L1.67453693,11.8033125 L1.67626609,11.617875 L1.67626609,10.3399375 C1.67626609,8.55791667 1.28702471,6.86933333 0.59011092,5.34797917 L0.441283333,5.0298125 L0.58972931,5.348075 L0.583528161,5.348075 C0.486217816,5.13484583 0.386522414,4.92449167 0.280625862,4.715575 L0.432697126,5.01352083 L0.28053046,4.71547917 L0.2251375,4.61126042 L0.167955747,4.50704167 L1.68676034,2.85535417 L4.20919713,0.112604167 L19.0461626,0.112604167 C23.254358,0.112604167 26.6788236,3.63352083 26.6788236,7.9623125 C26.6788236,12.2132928 23.3800157,15.6837345 19.2791282,15.8108115 L19.0461626,15.8144167 L5.13984655,15.8144167 L5.13984655,21.8452083 L0.0491798851,21.8452083 L0.0491798851,17.6462708 C0.384518966,17.0640833 0.67645,16.45075 0.914478736,15.8144167 L0.909947126,15.8143208 C1.18470575,15.0773625 1.39268276,14.3083 1.52242989,13.5152792 C1.55066897,13.3388021 1.57642759,13.1610312 1.59598506,12.9827812 Z M19.0461626,5.34797917 L5.13984655,5.34797917 L5.13984655,10.5790417 L19.0461626,10.5790417 C20.4480994,10.5790417 21.592927,9.4055625 21.592927,7.9623125 C21.592927,6.51954167 20.4480994,5.34797917 19.0461626,5.34797917 Z" id="形状" fill="#0015A8" mask="url(#mask-2)"></path>
                        </g>
                    </g>
                    <g id="编组" transform="translate(0.000000, 0.225496)">
                        <mask id="mask-4" fill="white">
                            <use xlink:href="#path-3"></use>
                        </mask>
                        <g id="Clip-10"></g>
                        <path d="M29.8470862,0.113083333 L25.1771437,5.189375 L25.1771437,5.22675 L41.209023,5.22675 C44.0138506,5.22675 46.2996897,7.51860417 46.2996897,10.3404167 L46.2996897,10.3404167 L46.2996897,11.6169167 C46.2996897,14.4377708 44.0138506,16.7310625 41.209023,16.7310625 L41.209023,16.7310625 L30.2678103,16.7310625 L30.2678103,7.79364583 L25.1771437,7.79364583 L25.1771437,16.7310625 L25.1771437,20.1676458 L16.6977874,10.9786667 L26.724569,0.113083333 L20.0511782,0.113083333 L13.361569,7.36335417 L6.67005172,0.113083333 L0,0.113083333 L10.0258276,10.9786667 L0,21.8447292 L6.66957471,21.8447292 L13.361569,14.5939792 L20.0516552,21.8447292 L25.1771437,21.8447292 L26.725046,21.8447292 L30.2678103,21.8447292 L41.209023,21.8447292 C46.8215402,21.8447292 51.3908333,17.2567083 51.3908333,11.6169167 L51.3908333,11.6169167 L51.3908333,10.3404167 C51.3908333,4.72841667 46.8697184,0.160520833 41.2977471,0.113083333 L41.2977471,0.113083333 L29.8470862,0.113083333 Z" id="Fill-9" fill="url(#linearGradient-5)" mask="url(#mask-4)"></path>
                    </g>
                </g>
                <g transform="translate(88.724138, 0.958333)" fill="#333333" id="编组-6">
                    <g transform="translate(0.594708, 0.242630)">
                        <polygon id="Fill-11" points="6.49972849 5.68499474 8.53872668 5.68499474 8.53872668 0.000363157895 0.011568784 0.000363157895 0.011568784 1.81736316 6.49972849 1.81736316"></polygon>
                        <path d="M5.54879855,2.27566842 L3.62307804,2.27566842 C3.38688203,2.52987895 3.07838113,2.66666842 2.73613793,2.66666842 L0.0114482759,2.66666842 L0.0114482759,3.8203 L3.35193466,3.8203 C4.30997459,3.8203 5.17160799,3.1763 5.54879855,2.27566842" id="Fill-13"></path>
                        <path d="M5.54879855,4.11276316 L3.62307804,4.11276316 C3.38688203,4.36697368 3.07838113,4.50376316 2.73613793,4.50376316 L0.0114482759,4.50376316 L0.0114482759,5.65739474 L3.35193466,5.65739474 C4.30997459,5.65739474 5.17160799,5.01218421 5.54879855,4.11276316" id="Fill-15"></path>
                        <polygon id="Fill-17" points="16.3828443 5.68499474 18.4206374 5.68499474 18.4206374 0.000363157895 9.89347949 0.000363157895 9.89347949 1.81736316 16.3828443 1.81736316"></polygon>
                        <path d="M15.4307093,2.27566842 L13.5061938,2.27566842 C13.2687927,2.52987895 12.9614969,2.66666842 12.6180486,2.66666842 L9.89335898,2.66666842 L9.89335898,3.8203 L13.2338454,3.8203 C14.1918853,3.8203 15.0535187,3.1763 15.4307093,2.27566842" id="Fill-19"></path>
                        <path d="M15.4307093,4.11276316 L13.5061938,4.11276316 C13.2687927,4.36697368 12.9614969,4.50376316 12.6180486,4.50376316 L9.89335898,4.50376316 L9.89335898,5.65739474 L13.2338454,5.65739474 C14.1918853,5.65739474 15.0535187,5.01218421 15.4307093,4.11276316" id="Fill-21"></path>
                        <path d="M6.09470054,15.6713526 L12.3382287,15.6713526 L12.3382287,14.7961421 L6.09470054,14.7961421 L6.09470054,15.6713526 Z M6.09470054,13.1595105 L12.3382287,13.1595105 L12.3382287,12.2395105 L6.09470054,12.2395105 L6.09470054,13.1595105 Z M1.76966243,10.4225105 L8.33735753,10.4225105 L8.33735753,9.72282632 L1.76966243,9.72282632 L1.76966243,10.4225105 Z M1.76966243,8.63214211 L8.33735753,8.63214211 L8.33735753,7.93245789 L1.76966243,7.93245789 L1.76966243,8.63214211 Z M10.0955717,8.63214211 L16.6644719,8.63214211 L16.6644719,7.93245789 L10.0955717,7.93245789 L10.0955717,8.63214211 Z M16.4282759,10.4225105 L10.0943666,10.4225105 L10.0943666,9.72282632 L16.6644719,9.72282632 L16.6644719,10.1791947 C16.6644719,10.3135632 16.5584247,10.4225105 16.4282759,10.4225105 L16.4282759,10.4225105 Z M18.4335318,15.6701421 L14.0964428,15.6701421 L14.0964428,14.7961421 L18.4214809,14.7961421 L18.4214809,13.1607211 L14.0964428,13.1607211 L14.0964428,12.2395105 L16.4282759,12.2395105 C17.5285154,12.2395105 18.4214809,11.3170895 18.4214809,10.1791947 L18.4214809,6.11545789 L0.0114482759,6.11545789 L0.0114482759,12.2395105 L4.33769147,12.2395105 L4.33769147,13.1607211 L0.0114482759,13.1607211 L0.0114482759,14.7961421 L4.33769147,14.7961421 L4.33769147,15.6701421 L0.000602540834,15.6701421 L0.000602540834,17.3055632 L18.4335318,17.3055632 L18.4335318,15.6701421 Z" id="Fill-23"></path>
                        <path d="M14.2009234,17.8257263 L10.7640305,17.8257263 C12.1631303,19.5071474 14.7203136,20.4247263 18.4452211,20.5881474 L18.4452211,19.2250947 C16.4339397,18.9527263 15.0191739,18.4806211 14.2009234,17.8257263" id="Fill-25"></path>
                        <path d="M-1.07647224e-12,19.2165 L-1.07647224e-12,20.5880263 C3.7080363,20.4246053 6.23991289,19.5070263 7.58357895,17.8256053 L4.23586207,17.8256053 C3.32120508,18.4805 1.9064392,18.9429211 -1.07647224e-12,19.2165" id="Fill-26"></path>
                        <path d="M31.1509996,0.537231579 L29.3301212,0.537231579 C29.4879869,1.85065263 29.7518998,2.89533684 30.1218599,3.67007368 L31.8632029,3.67007368 C31.5462664,2.77549474 31.3088653,1.73081053 31.1509996,0.537231579" id="Fill-27"></path>
                        <path d="M38.5121205,0.537231579 L36.6912421,0.537231579 C36.5321713,1.73081053 36.2959753,2.77549474 35.9790388,3.67007368 L37.7203819,3.67007368 C38.0891368,2.89533684 38.3542548,1.85065263 38.5121205,0.537231579" id="Fill-28"></path>
                        <path d="M42.7074918,12.8901684 C42.0218004,11.2789579 41.57351,9.04069474 41.3614156,6.17658947 L41.2746497,5.35101053 C41.4228748,5.12343158 41.5614592,4.89343158 41.6783521,4.65495789 L43.9740327,4.65495789 C43.9210091,8.17637895 43.4992305,10.9206421 42.7074918,12.8901684 L42.7074918,12.8901684 Z M34.9503811,0.000484210526 L32.8908966,0.000484210526 L32.8908966,4.29664211 L29.0141488,4.29664211 L29.0141488,6.17658947 L30.8338221,6.17658947 C30.4650672,7.25032632 29.8311942,8.17637895 28.9334083,8.95111579 L28.9334083,10.3843789 C30.8856407,9.48858947 32.100363,8.0868 32.5751652,6.17658947 L32.8908966,6.17658947 L32.8908966,10.0260632 L34.9503811,10.0260632 L34.9503811,6.17658947 L35.1877822,6.17658947 C35.6625844,8.14611579 36.8761016,9.57816842 38.8283339,10.4727474 L38.8283339,8.95111579 C37.8787296,8.11706316 37.2713684,7.19101053 37.0086606,6.17658947 L38.5126025,6.17658947 L38.5126025,7.69822105 L39.3043412,7.25032632 C39.7249147,10.7124316 40.4648348,13.3683263 41.5204864,15.2168 C40.7805662,16.4115895 39.7779383,17.5155895 38.5126025,18.5300105 L38.5126025,20.4995368 C40.570882,19.0674842 41.9687768,17.8739053 42.7074918,16.9188 C43.551049,17.9925368 44.9501488,19.2151684 46.9023811,20.5879053 L46.9023811,18.5481684 C45.6888639,17.6523789 44.687441,16.5314316 43.8944973,15.2168 C45.2670853,12.8901684 45.9792886,9.36995789 46.0323122,4.65495789 L47.1409873,4.65495789 L47.1409873,2.77501053 L42.3905554,2.77501053 C42.6014446,1.94095789 42.7858221,1.04516842 42.9448929,0.0888526316 L40.6492123,0.0888526316 C40.438323,2.65637895 39.7526316,4.56537895 38.5909328,5.81827368 L38.5909328,4.29664211 L34.9503811,4.29664211 L34.9503811,0.000484210526 Z" id="Fill-29"></path>
                        <path d="M33.842429,17.1005 C32.7843673,16.3197105 32.2083383,15.1309737 32.1022911,13.5149211 L35.745253,13.5149211 C35.6392058,15.0668158 35.0053328,16.2652368 33.842429,17.1005 L33.842429,17.1005 Z M37.8770425,10.5455 L35.818763,10.5455 L35.818763,11.7257632 L32.0203456,11.7257632 L32.0203456,10.5455 L29.9620661,10.5455 L29.9620661,11.7257632 L28.7750606,11.7257632 L28.7750606,13.5149211 L30.0440116,13.5149211 C30.1500588,15.4844474 30.8080334,17.0097105 32.0203456,18.0810263 C31.068331,18.3170789 29.9620661,18.5628158 28.6943201,18.7976579 L28.6943201,20.4960263 C30.9140806,20.1425526 32.6554236,19.6607632 33.9231695,19.0700263 C35.0137684,19.5978158 36.4213038,20.0699211 38.1289045,20.4778684 L38.1289045,18.5628158 C37.7794309,18.5083421 35.9802439,18.2262895 35.745253,18.1718158 C37.0057684,17.1549737 37.6974853,15.6030789 37.8023274,13.5149211 L38.9893328,13.5149211 L38.9893328,11.7257632 L37.8770425,11.7257632 L37.8770425,10.5455 Z" id="Fill-30"></path>
                        <path d="M75.8343434,4.01168421 L75.8343434,2.09784211 L71.283955,2.09784211 L71.283955,5.32907052e-15 L68.5725212,5.32907052e-15 L68.5725212,2.09784211 L64.0209278,2.09784211 L64.0209278,4.01168421 L66.0177481,4.01168421 L66.0177481,7.02347368 C66.0177481,10.2567895 65.8490367,12.627 65.5345103,14.145 C65.2802381,15.4911053 64.7837445,16.7500526 64.0582853,17.9339474 L64.0582853,20.5886316 C66.9625321,18.1203684 68.4387572,14.2684737 68.4869604,9.03536842 L72.3962454,9.03536842 L72.3962454,17.4279474 C72.4577045,18.2801579 72.0829241,18.7123158 71.283955,18.7123158 L69.8426773,18.7123158 L69.8426773,20.4409474 L72.3251456,20.4409474 C74.0315412,20.5026842 74.8787136,19.5645263 74.8787136,17.6131579 L74.8787136,7.12152632 L68.4869604,7.12152632 L68.4869604,4.01168421 L75.8343434,4.01168421 Z M64.0582853,13.7382632 C63.3063143,14.0832632 62.592906,14.3677368 61.9397517,14.6025789 L61.9397517,6.20878947 L63.7787064,6.20878947 L63.7787064,4.28284211 L61.9397517,4.28284211 L61.9397517,5.32907052e-15 L59.5428443,5.32907052e-15 L59.5428443,4.28284211 L57.6303797,4.28284211 L57.6303797,6.20878947 L59.5428443,6.20878947 L59.5428443,15.2441579 C58.9005358,15.4293684 58.1871274,15.5528421 57.3881583,15.6024737 L57.3881583,18.1566842 C59.7850657,17.7499474 62.0120566,16.9473684 64.0582853,15.7622632 C64.0944377,15.7501579 64.142641,15.7247368 64.1787935,15.7005263 L64.1787935,13.6886316 C64.142641,13.7140526 64.0944377,13.7249474 64.0582853,13.7382632 L64.0582853,13.7382632 Z" id="Fill-31"></path>
                    </g>
                </g>
            </g>
        </g>
    </g>
</svg>